<?xml version="1.0" encoding="utf-8"?>
<!-- Generator: Adobe Illustrator 19.2.0, SVG Export Plug-In . SVG Version: 6.00 Build 0)  -->
<svg version="1.1" id="Layer_1" xmlns="http://www.w3.org/2000/svg" xmlns:xlink="http://www.w3.org/1999/xlink" x="0px" y="0px"
	 viewBox="0 0 864 864" style="enable-background:new 0 0 864 864;" xml:space="preserve">
<g>
	<path d="M344.9,241.4c-1,0-2-0.4-2.5-0.9l-0.2,0.1c0.5,2.4,2.5,4.6,5.1,4.6c2,0,3.2-0.8,4.2-2h0.1c1,1.2,2.3,2,4.2,2
		c2.6,0,4.6-2.2,5.1-4.6l-0.2-0.1c-0.6,0.5-1.6,0.9-2.5,0.9c-1.9,0-3.1-1-3.1-3.7V228c0-3.1,1.7-4.5,4-5.2v-0.3
		c-2.3-0.7-4-2.2-4-5.2v-9.7c0-2.7,1.2-3.7,3.1-3.7c1,0,2,0.4,2.5,0.9l0.2-0.1c-0.5-2.4-2.5-4.6-5.1-4.6c-2,0-3.2,0.8-4.2,2h-0.1
		c-1-1.2-2.3-2-4.2-2c-2.6,0-4.6,2.2-5.1,4.6l0.2,0.1c0.6-0.5,1.6-0.9,2.5-0.9c1.9,0,3.1,1,3.1,3.7v9.7c0,3.1-1.7,4.5-4,5.2v0.3
		c2.3,0.7,4,2.2,4,5.2v9.7C348,240.3,346.7,241.4,344.9,241.4z"/>
	<path d="M381.8,241.4c-1,0-2-0.4-2.5-0.9l-0.2,0.1c0.5,2.4,2.5,4.6,5.1,4.6c2,0,3.2-0.8,4.2-2h0.1c1.2,1.1,3.1,2.1,5.8,2.1
		c4,0,6.8-1.7,9.4-1.7c1.8,0,2.6,0.8,2.6,2.1c0,0.4-0.1,0.7-0.2,1.1l0.2,0.1c1.6-0.7,3.1-2.4,3.1-4.1c0-1.3-0.5-2.6-1.8-3.3v-0.1
		c0.4-0.7,0.7-1.6,0.7-2.6c0-2.5-2.3-4-4.7-4l-0.1,0.3c0.7,0.7,1,1.4,1,2.4c0,2.3-1.9,4.2-6.5,4.2c-4.7,0-6.1-2.3-6.1-5.9V228
		c0-3.1,1.7-4.5,4-5.2v-0.3c-2.3-0.7-4-2.2-4-5.2v-9.7c0-2.7,1.2-3.7,3.1-3.7c1,0,2,0.4,2.5,0.9l0.2-0.1c-0.5-2.4-2.5-4.6-5.1-4.6
		c-2,0-3.2,0.8-4.2,2h-0.1c-1-1.2-2.3-2-4.2-2c-2.6,0-4.6,2.2-5.1,4.6l0.2,0.1c0.6-0.5,1.6-0.9,2.5-0.9c1.9,0,3.1,1,3.1,3.7v9.7
		c0,3.1-1.7,4.5-4,5.2v0.3c2.3,0.7,4,2.2,4,5.2v9.7C385,240.3,383.7,241.4,381.8,241.4z"/>
	<path d="M415.1,241.4c-1,0-2-0.4-2.5-0.9l-0.2,0.1c0.5,2.4,2.5,4.6,5.1,4.6c2,0,3.2-0.8,4.2-2h0.1c1,1.2,2.3,2,4.2,2
		c2.6,0,4.6-2.2,5.1-4.6l-0.2-0.1c-0.6,0.5-1.6,0.9-2.5,0.9c-1.9,0-3.1-1-3.1-3.7V228c0-3.1,1.7-4.5,4-5.2v-0.3
		c-2.3-0.7-4-2.2-4-5.2v-9.7c0-2.7,1.2-3.7,3.1-3.7c1,0,2,0.4,2.5,0.9l0.2-0.1c-0.5-2.4-2.5-4.6-5.1-4.6c-2,0-3.2,0.8-4.2,2h-0.1
		c-1-1.2-2.3-2-4.2-2c-2.6,0-4.6,2.2-5.1,4.6l0.2,0.1c0.6-0.5,1.6-0.9,2.5-0.9c1.9,0,3.1,1,3.1,3.7v9.7c0,3.1-1.7,4.5-4,5.2v0.3
		c2.3,0.7,4,2.2,4,5.2v9.7C418.3,240.3,417,241.4,415.1,241.4z"/>
	<path d="M437.8,241.4c-1,0-2-0.4-2.5-0.9l-0.2,0.1c0.5,2.4,2.5,4.6,5.1,4.6c2,0,3.2-0.8,4.2-2h0.1c1,1.2,2.3,2,4.2,2
		c2.6,0,4.6-2.2,5.1-4.6l-0.2-0.1c-0.6,0.5-1.6,0.9-2.5,0.9c-1.9,0-3.1-1-3.1-3.7v-11.4c10.8,2.9,12.8,9.9,12.8,12.7
		c0,1.6-0.8,2.5-2.2,2.5c-0.8,0-1.6-0.5-2.2-1l-0.2,0.1c0.5,2.4,2.5,4.6,5.1,4.6c2,0,3.2-0.8,4.2-2h0.1c1,1.2,2.3,2,4.2,2
		c2.6,0,4.6-2.2,5.1-4.6l-0.2-0.1c-0.6,0.5-1.6,0.9-2.5,0.9c-1.9,0-3.2-0.8-3.9-3.7c-1.8-7.2-6.5-12.7-14.9-15v-0.1
		c8-2.4,12.4-7.9,14.2-14.9c0.7-2.9,2-3.7,3.9-3.7c1,0,2,0.4,2.5,0.9l0.2-0.1c-0.5-2.4-2.5-4.6-5.1-4.6c-2,0-3.2,0.8-4.2,2h-0.1
		c-1-1.2-2.3-2-4.2-2c-2.6,0-4.6,2.2-5.1,4.6l0.2,0.1c0.5-0.5,1.3-1,2.2-1c1.4,0,2.2,0.8,2.2,2.5c0,2.8-1.8,9.6-12.1,12.6v-11.3
		c0-2.7,1.2-3.7,3.1-3.7c1,0,2,0.4,2.5,0.9l0.2-0.1c-0.5-2.4-2.5-4.6-5.1-4.6c-2,0-3.2,0.8-4.2,2h-0.1c-1-1.2-2.3-2-4.2-2
		c-2.6,0-4.6,2.2-5.1,4.6l0.2,0.1c0.6-0.5,1.6-0.9,2.5-0.9c1.9,0,3.1,1,3.1,3.7v9.7c0,3.1-1.7,4.5-4,5.2v0.3c2.3,0.7,4,2.2,4,5.2
		v9.7C440.9,240.3,439.7,241.4,437.8,241.4z"/>
	<path d="M479.7,241.4c-1,0-2-0.4-2.5-0.9l-0.2,0.1c0.5,2.4,2.5,4.6,5.1,4.6c2,0,3.2-0.8,4.2-2h0.1c1.2,1.1,3,2.1,6.3,2.1
		c4.4,0,8.2-1.7,11.5-1.7c1.8,0,2.6,0.8,2.6,2.1c0,0.4-0.1,0.7-0.2,1.1l0.2,0.1c1.6-0.7,3.1-2.4,3.1-4.1c0-1.3-0.5-2.6-1.8-3.3v-0.1
		c0.4-0.7,0.7-1.6,0.7-2.6c0-2.5-2.3-4-4.7-4L504,233c0.7,0.7,1,1.4,1,2.4c0,2.3-3.2,4.2-8.5,4.2c-5.4,0-6.7-2-6.7-5.9v-3.6
		c0-3.1,1.6-4.6,4-4.6c2.4,0,3.7,1.4,3.7,3.2c0,0.9-0.3,1.8-0.8,2.4l0.1,0.2c2.3-0.6,4.2-2.4,4.2-4.9c0-1.8-0.7-2.9-1.8-3.9v-0.1
		c1.1-0.9,1.8-2,1.8-3.9c0-2.4-2-4.3-4.2-4.8l-0.1,0.2c0.5,0.6,0.8,1.5,0.8,2.4c0,1.8-1.3,3.2-3.7,3.2c-2.5,0-4-1.5-4-4.6v-3.6
		c0-3.9,1.2-5.9,6.4-5.9c5.2,0,8.2,1.8,8.2,4.2c0,1-0.3,1.7-1,2.4l0.1,0.3c2.3,0,4.7-1.6,4.7-4c0-1-0.3-1.9-0.7-2.6v-0.1
		c1.2-0.7,1.8-2,1.8-3.3c0-1.7-1.6-3.5-3.1-4.1l-0.2,0.1c0.1,0.5,0.2,0.7,0.2,1.1c0,1.2-0.8,2.1-2.6,2.1c-3.2,0-6.9-1.7-11.2-1.7
		c-3.2,0-4.8,1-6,2.1h-0.1c-1-1.2-2.3-2-4.2-2c-2.6,0-4.6,2.2-5.1,4.6l0.2,0.1c0.6-0.5,1.6-0.9,2.5-0.9c1.9,0,3.1,1,3.1,3.7v9.7
		c0,3.1-1.7,4.5-4,5.2v0.3c2.3,0.7,4,2.2,4,5.2v9.7C482.8,240.3,481.6,241.4,479.7,241.4z"/>
	<path d="M234.3,462.9c-31.6,0-71.6,21.2-71.6,63.7c0,18,12.9,27.9,25.3,27.9c13.5,0,21.4-13.4,21.4-25.9c0-10.9-7.9-19.1-12.5-21.8
		c-1-0.6-1.9-0.9-2.3-0.9c-1,0-1.7,0.7-1.7,1.9c0,0.4,0.3,1.2,0.7,1.9c1.6,2.8,4.4,8.3,4.4,19.8c0,8.9-2.5,19.2-9.5,19.2
		c-7.7,0-11.3-9.5-11.3-21.8c0-36.1,30-57.6,54.9-57.6c24.3,0,42.8,15.9,42.8,49c0,38.6-18.5,61-29.5,61c-9.7,0-17.6-10-17.6-53
		c0-31.6,5.4-41.3,5.4-44.1c0-1.3-1.3-2.5-3.1-2.5c-3.9,0-16.1,10.9-16.1,53.1c0,41,12.2,54.1,26.9,54.1c19.4,0,49.5-24.9,49.5-67.8
		C290.2,479,262.2,462.9,234.3,462.9z"/>
	<path d="M313.7,481.4c-5.2,0-8.6,5.4-8.6,10.2c0,4.7,3.2,7.3,6.5,7.3c4.5,0,8.4-4.4,8.4-10.3C320.1,484.6,317.8,481.4,313.7,481.4z
		"/>
	<path d="M326.1,563.6c0.7-1.2,1.3-2.4,2-3.7c2.4,10.4,9.5,15.7,16.6,15.7c9.7,0,13.2-13.8,13.2-14.5c0.4,1.2,2.9,12.2,12.7,12.2
		c5.1,0,9.3-5.5,12.7-11.2c0.5-0.9,1-1.7,1.5-2.7c1.3,8.4,3.7,13.4,5.2,13.4c2.8,0,6.1-1.9,6.1-4.1c0-2.2,0-6.7,1.6-15.3
		c3.2-18,7.4-33.8,13.4-33.8c2.5,0,3.2,3.8,3.2,15.3v16.9c0,17.3,0.7,21,7.6,21c1.3,0,3.3-0.7,3.3-2.5c0-8.9,0.3-18.2,3.3-27.9
		c3.1-9.3,8.4-15.3,12.7-15.3c2.3,0,3.1,2,3.1,2.8c0,10.5-7.6,18-7.6,33.5c0,7.4,6.3,12.1,12.5,12.1c6.4,0,11.8-6.1,15.6-12.2
		c0.9-1.5,1.8-3.1,2.6-4.8c3,10.7,11.1,16.6,22,16.6c11.8,0,24.2-9.9,24.2-31c0-22.8-9.9-31.7-23.3-31.7c-12.4,0-21.8,8-21.8,16
		c0,1.9,0.4,3.5,1.3,4.9c-1.6,2.8-3.6,7.6-3.6,15c0,1.2,0,2.3,0.1,3.4c-1,2.2-2.1,4.3-3.2,6.2c-2.8,4.5-6.4,9-10.6,9
		c-0.7,0-3.5-0.7-3.5-4.1c0-12.7,6.5-23.3,6.5-33.6c0-5.2-4.2-10.2-10.5-10.2c-7.7,0-16.1,10.2-18.9,15.4v-3.9
		c0-7.1-1.7-19.1-12.2-19.1c-10,0-16,13.7-19.1,30c0-12.8,1.9-20.7,1.9-22.6c0-1.6-2-2-3.2-2c-6.8,0-9.7,7.7-9.7,28.8
		c0,2.2,0.1,4.3,0.2,6.3c-0.7,1.7-1.6,3.2-2.4,4.6c-2.3,3.9-5.4,7.7-9.3,7.7c-2.8,0-4.7-4.8-4.7-11.8c0-14.4,3.6-18.3,3.6-19.9
		c0-1.3-0.6-1.9-1.9-1.9c-11.8,0-11.9,10.2-13.5,17.2c-1.9,8.7-4.9,20.4-8.9,20.4c-2.9,0-6.3-4.9-6.3-16c0-22.7,9-33.5,15.4-33.5
		c3.9,0,5.7,2.3,5.7,5.4c0,1.9-0.3,2.9-0.3,3.9c0,0.6,0.3,1.6,1.6,1.6c1.7,0,6.7-1.6,6.7-5.1c0-7-6-11.9-13.5-11.9
		c-13.4,0-29,13.2-29,39.6c0,0.2,0,0.4,0,0.6c-0.9,2.1-1.9,4-2.9,5.8c-2.8,4.8-6.7,9.6-10.8,9.6c-2.3,0-5.8-2.8-5.8-17.7
		c0-23.6,4.8-33.3,4.8-35.2c0-1.6-0.9-2.3-2.8-2.3c-8.7,0-14.8,9.6-14.8,34.6c0,23.6,9.6,29,16.7,29
		C317.4,576.4,322.5,570,326.1,563.6z M478.3,539.3c0.4,0.1,1.3,0.1,2.3,0.1c1.6,0,3.1-0.6,3.1-2.2c0-2.3-3.3-1.7-3.3-8.4
		c0-5.1,4.4-10.6,10.2-10.6c5.4,0,11.1,4.4,11.1,21.5c0,22-6.1,28.1-12.1,28.1c-6.4,0-11.3-6.1-11.3-22.3
		C478.1,542.8,478.1,541,478.3,539.3z"/>
	<path d="M645.6,510.8c0,4.4,1,6.3,3.1,11.8c-0.4,6.5-4.8,22.3-6,25.8c-3.3,1.2-6.3,4.4-6.3,8.6c0,1,0.1,2,0.3,3
		c-2.1,2.6-4.5,4.7-7.4,4.7c-4.1,0-6.4-8.4-7.6-21.8c7.4-19.6,12.8-43.2,12.8-57.8c0-8.1-4.5-11.6-9-11.6c-6.7,0-15.4,8.7-15.4,42.3
		v1c-2-2.5-4.9-3.8-8.9-3.8c-8.6,0-23.9,9.7-23.9,34.2c0,1.9,0.1,3.7,0.3,5.4c-0.8,1.9-1.7,3.6-2.6,5.2c-2.8,4.5-6.5,9-10.8,9
		c-2.2,0-3.8-1.5-3.8-4.8c0-14,5.4-29.7,5.4-40c0-5.4-4.9-9.2-10.2-9.2c-10.5,0-20.7,17.2-24.2,29.8c0-18.3,2.2-22.1,2.2-24.4
		c0-1.3-1.5-1.5-2.5-1.5c-5.5,0-11.2,8-11.2,33.5c0,15.9,4.9,22.6,10,22.6c1.2,0,3.3-0.1,3.3-2.5c0-1.7-0.6-3.2-0.6-6.8
		c0-1.9,0.1-4.1,0.6-7c3.1-18.5,14.1-37,20.4-37c0.7,0,1.9,0.1,1.9,2.5c0,8.6-9,24.3-9,40.2c0,10,8,13.2,13.2,13.2
		c7.3,0,12.9-6.1,16.7-12.2c0.8-1.3,1.6-2.7,2.3-4.2c3.2,10.5,10.5,15.9,17.9,15.9c5.8,0,11.6-5.8,17-15.1
		c2.5,8.7,6.5,14.1,13.1,14.1c4.6,0,8.5-3.7,11.6-8.2c2.7,5.1,7.8,9.2,15.4,9.2c8.6,0,20.7-6,20.7-17.7c0-13.7-18.2-26.3-18.2-35.4
		c1-3.3,3.6-8.3,3.6-12.8c0-5.2-3.3-7.1-6.7-7.1C648.9,501.7,645.6,505.7,645.6,510.8z M600,565.9c-3.6,0-8.6-5.1-8.6-21.8
		c0-16.1,6-25.3,10.8-25.3c3.6,0,4.8,3.1,4.8,4.8c0,3.6-1.9,5.5-1.9,7.1c0,1.3,1.9,3.6,3.5,3.6c0.4,0,1-0.3,1.7-0.7
		c0.4,6.3,0.6,11.8,1.6,17C607.7,559.9,603.4,565.9,600,565.9z M620.8,518.3c0-30.3,2.9-38.6,5.2-38.6c1.6,0,2.5,1.7,2.5,5.1
		c0,11.1-3.2,26.6-7.7,41.6V518.3z M660.3,556.7c0,8-2.5,12.1-7.6,12.1c-4.5,0-7.7-4.1-7.7-7.4c0-3.8,1.6-4.9,1.6-10.3
		c0.4-1.2,4.1-10,5.7-19.1C653.4,533.2,660.3,549,660.3,556.7z"/>
	<path d="M298.9,300.4c2,0,3.2-0.8,4.2-2h0.1c1,1.2,2.3,2,4.2,2c2.6,0,4.6-2.2,5.1-4.6l-0.2-0.1c-0.6,0.5-1.6,0.9-2.5,0.9
		c-1.9,0-3.3-1.2-2.6-3.7l0.6-2c0.8-2.9,2.2-4.6,6-4.6h3.3c3.8,0,5.2,1.6,6,4.6l0.6,2c0.7,2.5-0.7,3.7-2.6,3.7c-1,0-2-0.4-2.5-0.9
		l-0.2,0.1c0.5,2.4,2.5,4.6,5.1,4.6c2,0,3.2-0.8,4.2-2h0.1c1,1.2,2.3,2,4.2,2c2.6,0,4.6-2.2,5.1-4.6l-0.2-0.1
		c-0.6,0.5-1.6,0.9-2.5,0.9c-1.9,0-2.9-1.2-3.7-3.7l-2.8-9.1c-1-3.4,1-5.3,3.1-5.8v-0.3c-2.7-0.5-5.2-1.6-6.4-5.2l-3.2-10.4
		c-0.6-1.9,0.5-2.9,2-2.9c1,0,1.8,0.4,2.5,0.9l0.2-0.1c-1-2.7-3.3-4.6-5.9-4.6c-2,0-3.6,0.9-4.6,2h-0.1c-1-1-2.6-2-4.6-2
		c-2.6,0-5,1.8-5.9,4.6l0.2,0.1c0.7-0.5,1.6-0.9,2.5-0.9c1.5,0,2.5,1,2,2.9l-3.3,10.4c-1.2,3.7-3.7,4.8-6.4,5.2v0.3
		c2,0.5,4.1,2.4,3.1,5.8l-2.8,9.1c-0.8,2.5-1.8,3.7-3.7,3.7c-1,0-2-0.4-2.5-0.9l-0.2,0.1C294.3,298.3,296.3,300.4,298.9,300.4z
		 M311.4,277.9l4-14h0.1l4,14c0.1,0.3,0.1,0.6,0.1,0.6c0,1.1-0.9,2-2,2h-4.2c-1.1,0-2-0.8-2-2C311.3,278.5,311.3,278.2,311.4,277.9z
		"/>
	<path d="M353.4,260l0.2,0.1c0.6-0.5,1.6-0.9,2.5-0.9c1.9,0,3.1,1,3.1,3.7v9.7c0,3.1-1.7,4.5-4,5.2v0.3c2.3,0.7,4,2.2,4,5.2v9.7
		c0,2.7-1.2,3.7-3.1,3.7c-1,0-2-0.4-2.5-0.9l-0.2,0.1c0.5,2.4,2.5,4.6,5.1,4.6c2,0,3.2-0.8,4.2-2h0.1c1.2,1.1,3.1,2.1,5.8,2.1
		c4,0,6.8-1.7,9.4-1.7c1.8,0,2.6,0.8,2.6,2.1c0,0.4-0.1,0.7-0.2,1.1l0.2,0.1c1.6-0.7,3.1-2.4,3.1-4.1c0-1.3-0.5-2.6-1.8-3.3v-0.1
		c0.4-0.7,0.7-1.6,0.7-2.6c0-2.5-2.3-4-4.7-4l-0.1,0.3c0.7,0.7,1,1.4,1,2.4c0,2.3-1.9,4.2-6.5,4.2c-4.7,0-6.1-2.3-6.1-5.9v-5.7
		c0-3.1,1.7-4.5,4-5.2v-0.3c-2.3-0.7-4-2.2-4-5.2v-9.7c0-2.7,1.2-3.7,3.1-3.7c1,0,2,0.4,2.5,0.9l0.2-0.1c-0.5-2.4-2.5-4.6-5.1-4.6
		c-2,0-3.2,0.8-4.2,2h-0.1c-1-1.2-2.3-2-4.2-2C355.9,255.4,353.9,257.6,353.4,260z"/>
	<path d="M402.7,259.2c1,0,2,0.4,2.5,0.9l0.2-0.1c-0.5-2.4-2.5-4.6-5.1-4.6c-2,0-3.2,0.8-4.2,2H396c-1-1.2-2.3-2-4.2-2
		c-2.6,0-4.6,2.2-5.1,4.6l0.2,0.1c0.6-0.5,1.6-0.9,2.5-0.9c1.9,0,3.1,1,3.1,3.7v9.7c0,3.1-1.7,4.5-4,5.2v0.3c2.3,0.7,4,2.2,4,5.2
		v9.7c0,2.7-1.2,3.7-3.1,3.7c-1,0-2-0.4-2.5-0.9l-0.2,0.1c0.5,2.4,2.5,4.6,5.1,4.6c2,0,3.2-0.8,4.2-2h0.1c1,1.2,2.3,2,4.2,2
		c2.6,0,4.6-2.2,5.1-4.6l-0.2-0.1c-0.6,0.5-1.6,0.9-2.5,0.9c-1.9,0-3.1-1-3.1-3.7v-9.7c0-3.1,1.7-4.5,4-5.2v-0.3
		c-2.3-0.7-4-2.2-4-5.2v-9.7C399.5,260.2,400.8,259.2,402.7,259.2z"/>
	<path d="M410.1,261.2L410.1,261.2c-0.4,0.8-0.7,1.7-0.7,2.7c0,2.5,2.3,4,4.7,4l0.1-0.3c-0.7-0.7-1-1.4-1-2.4c0-2.3,1.9-4.2,5.9-4.2
		c4,0,5.4,2.3,5.4,5.9v5.6c0,3.1-1.7,4.5-4,5.2v0.3c2.3,0.7,4,2.2,4,5.2v9.7c0,2.7-1.2,3.7-3.1,3.7c-1,0-2-0.4-2.5-0.9l-0.2,0.1
		c0.5,2.4,2.5,4.6,5.1,4.6c2,0,3.2-0.8,4.2-2h0.1c1,1.2,2.3,2,4.2,2c2.6,0,4.6-2.2,5.1-4.6l-0.2-0.1c-0.6,0.5-1.6,0.9-2.5,0.9
		c-1.9,0-3.1-1-3.1-3.7v-9.7c0-3.1,1.7-4.5,4-5.2v-0.3c-2.3-0.7-4-2.2-4-5.2V267c0-3.6,1.4-5.9,5.4-5.9c4,0,5.9,1.8,5.9,4.2
		c0,1-0.3,1.7-1,2.4l0.1,0.3c2.3,0,4.7-1.6,4.7-4c0-1-0.3-1.9-0.7-2.6v-0.1c1.2-0.7,1.8-2,1.8-3.3c0-2.1-1.6-3.5-3.1-4.1l-0.2,0.1
		c0.1,0.5,0.2,0.7,0.2,1.1c0,1.2-0.8,2.1-2.6,2.1c-2.3,0-4.9-1.7-8.6-1.7c-2.7,0-4.4,1.2-5.3,2.1H428c-0.8-0.8-2.6-2.1-5.3-2.1
		c-3.7,0-6.3,1.7-8.6,1.7c-1.8,0-2.6-0.8-2.6-2.1c0-0.4,0.1-0.7,0.2-1.1l-0.2-0.1c-1.6,0.7-3.1,2-3.1,4.1
		C408.3,259.2,408.9,260.5,410.1,261.2z"/>
	<path d="M489,257.9c0-2.1-1.6-3.5-3.1-4.1l-0.2,0.1c0.1,0.5,0.2,0.7,0.2,1.1c0,1.2-0.8,2.1-2.6,2.1c-2.3,0-4.9-1.7-8.6-1.7
		c-2.7,0-4.4,1.2-5.3,2.1h-0.1c-0.8-0.8-2.6-2.1-5.3-2.1c-3.7,0-6.3,1.7-8.6,1.7c-1.8,0-2.6-0.8-2.6-2.1c0-0.4,0.1-0.7,0.2-1.1
		l-0.2-0.1c-1.6,0.7-3.1,2-3.1,4.1c0,1.3,0.5,2.6,1.8,3.3v0.1c-0.4,0.7-0.7,1.6-0.7,2.6c0,2.5,2.3,4,4.7,4l0.1-0.3
		c-0.7-0.7-1-1.4-1-2.4c0-2.3,1.9-4.2,5.9-4.2c4,0,5.4,2.3,5.4,5.9v5.6c0,3.1-1.7,4.5-4,5.2v0.3c2.3,0.7,4,2.2,4,5.2v9.7
		c0,2.7-1.2,3.7-3.1,3.7c-1,0-2-0.4-2.5-0.9l-0.2,0.1c0.5,2.4,2.5,4.6,5.1,4.6c2,0,3.2-0.8,4.2-2h0.1c1,1.2,2.3,2,4.2,2
		c2.6,0,4.6-2.2,5.1-4.6l-0.2-0.1c-0.6,0.5-1.6,0.9-2.5,0.9c-1.9,0-3.1-1-3.1-3.7v-9.7c0-3.1,1.7-4.5,4-5.2v-0.3
		c-2.3-0.7-4-2.2-4-5.2V267c0-3.6,1.4-5.9,5.4-5.9c4,0,5.9,1.8,5.9,4.2c0,1-0.3,1.7-1,2.4l0.1,0.3c2.3,0,4.7-1.6,4.7-4
		c0-1-0.3-1.9-0.7-2.6v-0.1C488.5,260.5,489,259.2,489,257.9z"/>
	<path d="M507.9,259.2c1,0,2,0.4,2.5,0.9l0.2-0.1c-0.5-2.4-2.5-4.6-5.1-4.6c-2,0-3.2,0.8-4.2,2h-0.1c-1-1.2-2.3-2-4.2-2
		c-2.6,0-4.6,2.2-5.1,4.6l0.2,0.1c0.6-0.5,1.6-0.9,2.5-0.9c1.9,0,3.1,1,3.1,3.7v9.7c0,3.1-1.7,4.5-4,5.2v0.3c2.3,0.7,4,2.2,4,5.2
		v9.7c0,2.7-1.2,3.7-3.1,3.7c-1,0-2-0.4-2.5-0.9l-0.2,0.1c0.5,2.4,2.5,4.6,5.1,4.6c2,0,3.2-0.8,4.2-2h0.1c1.2,1.1,3.1,2.1,5.8,2.1
		c4,0,6.8-1.7,9.4-1.7c1.8,0,2.6,0.8,2.6,2.1c0,0.4-0.1,0.7-0.2,1.1l0.2,0.1c1.6-0.7,3.1-2.4,3.1-4.1c0-1.3-0.5-2.6-1.8-3.3v-0.1
		c0.4-0.7,0.7-1.6,0.7-2.6c0-2.5-2.3-4-4.7-4l-0.1,0.3c0.7,0.7,1,1.4,1,2.4c0,2.3-1.9,4.2-6.5,4.2c-4.7,0-6.1-2.3-6.1-5.9v-5.7
		c0-3.1,1.7-4.5,4-5.2v-0.3c-2.3-0.7-4-2.2-4-5.2v-9.7C504.8,260.2,506,259.2,507.9,259.2z"/>
	<path d="M528,296.7c-1,0-2-0.4-2.5-0.9l-0.2,0.1c0.5,2.4,2.5,4.6,5.1,4.6c2,0,3.2-0.8,4.2-2h0.1c1.2,1.1,3,2.1,6.3,2.1
		c4.4,0,8.2-1.7,11.5-1.7c1.8,0,2.6,0.8,2.6,2.1c0,0.4-0.1,0.7-0.2,1.1l0.2,0.1c1.6-0.7,3.1-2.4,3.1-4.1c0-1.3-0.5-2.6-1.8-3.3v-0.1
		c0.4-0.7,0.7-1.6,0.7-2.6c0-2.5-2.3-4-4.7-4l-0.1,0.3c0.7,0.7,1,1.4,1,2.4c0,2.3-3.2,4.2-8.5,4.2c-5.4,0-6.7-2-6.7-5.9v-3.6
		c0-3.1,1.6-4.6,4-4.6c2.4,0,3.7,1.4,3.7,3.2c0,0.9-0.3,1.8-0.8,2.4l0.1,0.2c2.3-0.6,4.2-2.4,4.2-4.9c0-1.8-0.7-2.9-1.8-3.9v-0.1
		c1.1-0.9,1.8-2,1.8-3.9c0-2.4-2-4.3-4.2-4.8l-0.1,0.2c0.5,0.6,0.8,1.5,0.8,2.4c0,1.8-1.3,3.2-3.7,3.2c-2.5,0-4-1.5-4-4.6v-3.6
		c0-3.9,1.2-5.9,6.4-5.9c5.2,0,8.2,1.8,8.2,4.2c0,1-0.3,1.7-1,2.4l0.1,0.3c2.3,0,4.7-1.6,4.7-4c0-1-0.3-1.9-0.7-2.6v-0.1
		c1.2-0.7,1.8-2,1.8-3.3c0-1.7-1.6-3.5-3.1-4.1l-0.2,0.1c0.1,0.5,0.2,0.7,0.2,1.1c0,1.2-0.8,2.1-2.6,2.1c-3.2,0-6.9-1.7-11.2-1.7
		c-3.2,0-4.8,1-6,2.1h-0.1c-1-1.2-2.3-2-4.2-2c-2.6,0-4.6,2.2-5.1,4.6l0.2,0.1c0.6-0.5,1.6-0.9,2.5-0.9c1.9,0,3.1,1,3.1,3.7v9.7
		c0,3.1-1.7,4.5-4,5.2v0.3c2.3,0.7,4,2.2,4,5.2v9.7C531.1,295.6,529.8,296.7,528,296.7z"/>
	<path d="M375.9,469.8c0-9.1-4.6-14-11.2-14c-6.6,0-11.2,4.9-11.2,14c0,2.4-1.3,3.5-3.2,4.1v0.2c1.9,0.6,3.2,1.7,3.2,4.1
		c0,9.1,4.6,14,11.2,14c6.6,0,11.2-4.9,11.2-14c0-2.4,1.3-3.5,3.2-4.1v-0.2C377.2,473.3,375.9,472.2,375.9,469.8z M370.2,478.2
		c0,6.8-2.4,9.1-5.5,9.1c-3.1,0-5.5-2.2-5.5-9.1c0-2.4,1.3-3.5,3.2-4.1v-0.2c-1.9-0.6-3.2-1.7-3.2-4.1c0-6.8,2.4-9.1,5.5-9.1
		c3.1,0,5.5,2.2,5.5,9.1c0,2.4-1.3,3.5-3.2,4.1v0.2C368.8,474.6,370.2,475.8,370.2,478.2z"/>
	<path d="M414,488.8c-1.5,0-3-0.8-3-2.9v-7.7c0-2.4,1.3-3.5,3.2-4.1v-0.2c-1.9-0.6-3.2-1.7-3.2-4.1v-7.6c0-2.1,1-2.9,2.5-2.9
		c0.8,0,1.5,0.3,2,0.7l0.2-0.1c-0.4-1.9-2-3.6-4-3.6c-1.5,0-2.5,0.6-3.3,1.5h-0.1c-0.8-0.9-1.8-1.5-3.3-1.5c-2.1,0-3.6,1.7-4,3.6
		l0.2,0.1c0.5-0.4,1.2-0.7,2-0.7c1.5,0,2.5,0.8,2.5,2.9v22.4h-0.1c-5.5-11.2-6.1-28.6-17.4-28.6c-2.7,0-5.1,0.9-6.8,3.9l0.2,0.1
		c0.5-0.4,1.5-0.7,2.3-0.7c1.5,0,3,0.8,3,2.9v7.6c0,2.4-1.3,3.5-3.2,4.1v0.2c1.9,0.6,3.2,1.7,3.2,4.1v7.6c0,2.1-1,2.9-2.5,2.9
		c-0.8,0-1.5-0.3-2-0.7l-0.2,0.1c0.4,1.9,2,3.6,4,3.6c1.5,0,2.5-0.6,3.3-1.5h0.1c0.8,0.9,1.8,1.5,3.3,1.5c2.1,0,3.6-1.7,4-3.6
		l-0.2-0.1c-0.5,0.4-1.2,0.7-2,0.7c-1.5,0-2.5-0.8-2.5-2.9v-22.5h0.1c5.5,11.2,6.1,28.8,17.4,28.8c2.7,0,5.1-0.9,6.8-3.9l-0.2-0.1
		C415.8,488.5,414.7,488.8,414,488.8z"/>
	<path d="M461.9,455.9c-5.3,0-7.5,4-10.5,11.1l-2.1,5h-0.1l-2.1-5c-3-7.1-5.1-11.1-10.5-11.1c-2.7,0-5.1,0.9-6.8,3.9l0.2,0.1
		c0.5-0.4,1.5-0.7,2.3-0.7c1.5,0,3,0.8,3,2.9v7.6c0,2.4-1.3,3.5-3.2,4.1v0.2c1.9,0.6,3.2,1.7,3.2,4.1v7.6c0,2.1-1,2.9-2.5,2.9
		c-0.8,0-1.5-0.3-2-0.7l-0.2,0.1c0.4,1.9,2,3.6,4,3.6c1.5,0,2.5-0.6,3.3-1.5h0.1c0.8,0.9,1.8,1.5,3.3,1.5c2.1,0,3.6-1.7,4-3.6
		l-0.2-0.1c-0.5,0.4-1.2,0.7-2,0.7c-1.5,0-2.5-0.8-2.5-2.9v-21.1h0.1l8,17.7h0.9l8-17.7h0.1v21.1c0,2.1-1,2.9-2.5,2.9
		c-0.8,0-1.5-0.3-2-0.7l-0.2,0.1c0.4,1.9,2,3.6,4,3.6c1.5,0,2.5-0.6,3.3-1.5h0.1c0.8,0.9,1.8,1.5,3.3,1.5c2.1,0,3.6-1.7,4-3.6
		l-0.2-0.1c-0.5,0.4-1.2,0.7-2,0.7c-1.5,0-2.5-0.8-2.5-2.9v-7.6c0-2.4,1.3-3.5,3.2-4.1v-0.2c-1.9-0.6-3.2-1.7-3.2-4.1v-7.6
		c0-2.1,1.5-2.9,3-2.9c0.8,0,1.8,0.3,2.3,0.7l0.2-0.1C467,456.8,464.6,455.9,461.9,455.9z"/>
	<path d="M497.7,456.2c-1.5,0-2.5,0.6-3.3,1.5h-0.1c-0.8-0.9-1.8-1.5-3.3-1.5c-2.1,0-3.6,1.7-4,3.6l0.2,0.1c0.5-0.4,1.2-0.7,2-0.7
		c1,0,2.1,1.1,1.1,2.9l-4.4,7.6h-0.1l-4.4-7.6c-1-1.9,0.1-2.9,1.1-2.9c0.8,0,1.5,0.3,2,0.7l0.2-0.1c-0.4-1.9-2-3.6-4-3.6
		c-1.5,0-2.5,0.6-3.3,1.5h-0.1c-0.8-0.9-1.8-1.5-3.3-1.5c-2.1,0-3.6,1.7-4,3.6l0.2,0.1c0.5-0.4,1.2-0.7,2-0.7c1.5,0,2.3,1.1,3.3,2.9
		l4.8,8c1,1.7,0.9,3.3-1.5,3.7v0.2c2.5,0.6,4.4,1.8,4.4,4.9v6.8c0,2.1-1,2.9-2.5,2.9c-0.8,0-1.5-0.3-2-0.7l-0.2,0.1
		c0.4,1.9,2,3.6,4,3.6c1.5,0,2.5-0.6,3.3-1.5h0.1c0.8,0.9,1.8,1.5,3.3,1.5c2.1,0,3.6-1.7,4-3.6L493,488c-0.5,0.4-1.2,0.7-2,0.7
		c-1.5,0-2.5-0.8-2.5-2.9V479c0-3.1,2-4.3,4.4-4.9v-0.2c-2.4-0.4-2.5-2-1.5-3.7l4.8-8c1.1-1.9,1.9-2.9,3.3-2.9c0.8,0,1.5,0.3,2,0.7
		l0.2-0.1C501.3,457.9,499.8,456.2,497.7,456.2z"/>
	<rect x="189.8" y="367.7" width="28.5" height="8.3"/>
	<path d="M231.4,389.9v-15.8l-7.8-11.4h-39.4v18.5l6.4,8.7H231.4z M187.1,365h34.3v13.8h-34.3V365z"/>
	<path d="M273.3,322.4h12c11.4,0,19.2,9.3,18.5,45.4c2.2-1.5,5.1-1.5,8.3,0c-0.7,3.4-3.4,6.7-6.2,8.9c2.9,8.7,2,18.1-3.1,29.8
		c8.3-10,13.8-19.4,15.1-29.8c-0.9-2.9-3.1-6.4-5.1-8.9c3.6-1.5,6.2-1.5,8.7,0c-0.7-20.7-4.4-52.1-34.7-52.1h-48.3v4l4.7,0.7
		c3.3,0.7,7.1,4.2,7.1,18v29.4c1.6-1.5,3.8-1.5,6.5,0c-1.1,2.4-3.1,6.2-5.4,8.9c2.4,6,4.4,14.3,5.8,29.8c1.1-15.4,3.3-23.8,5.8-29.8
		c-2.5-2.7-4.7-6.5-5.6-8.9c2.5-1.5,4.7-1.5,6.9,0v-28.5C264.4,330.2,266,322.4,273.3,322.4z M307.2,330.3
		c6.4,12.7,9.1,19.2,10.7,24.5c-1.5,4.4-3.1,8.9-5.1,12.7h-0.7c-0.5-4.2-2.9-9.4-6.2-12.7C309.2,350.3,309.2,343.8,307.2,330.3z
		 M257.5,367.5H257c-1.1-6.4-3.1-10-5.4-12.7c2.4-4.4,4.4-10.9,5.8-24.5c1.5,13.6,3.4,20.1,5.8,24.5
		C260.8,357.6,258.8,361.2,257.5,367.5z"/>
	<path d="M300.3,369.2c0-36.5-6.4-43.7-14.2-43.7h-12.3c-5.8,0-6.2,5.4-6.2,13.8v61.9c0,8.3,1.8,12.7,5.6,12.7h8.3
		C294.9,413.8,300.3,387,300.3,369.2z M284.2,352.5c0-5.3,2.2-8.5,4.9-8.5h4.2c2.7,0,4,6.7,4,25.2c0,21.4-8.3,38.6-10.5,38.6
		c-1.8,0-2.5-1.6-2.5-3.3V352.5z"/>
	<path d="M296.2,445.4c20.7,0,45.2-24.9,45.2-59.5c0-43.4-23.6-76.6-53-76.6h-56.1V326l5.8,1.1c3.4,0.4,6,2.9,6,11.3v61.9
		c0,6.4-1.3,11.4-4.7,12.2l-7.1,1.1v16.7l11.6,15.2H296.2z M235.6,416.5l5.8-0.9c4.4-0.9,5.8-6.2,5.8-14.5v-62.8
		c0-8.5-2.2-13.8-5.8-14.5l-5.8-0.9v-10.3h51.2c22.3,0,38.1,16.1,38.1,58.4c0,31-18.9,55.9-44.5,55.9h-44.8V416.5z"/>
	<path d="M381.1,320.4l4.7-0.7v-4h-37.6v4l4.7,0.7c3.3,0.7,7.1,4.2,7.1,18v29.4c1.8-1.5,4.2-1.5,6.7,0c-0.9,2.4-2.9,6.2-5.6,8.9
		c2.7,6,4.7,14.3,6,29.8c1.3-15.4,3.3-23.8,6-29.8c-2.7-2.7-4.7-6.5-5.8-8.9c2.4-1.5,4.9-1.5,6.7,0v-29.4
		C374,324.5,377.8,321.1,381.1,320.4z M367.3,367.5h-0.5c-0.9-6.4-2.9-10-5.6-12.7c2.7-4.4,4.7-10.9,6-24.5
		c1.3,13.6,3.3,20.1,6,24.5C370.4,357.6,368.4,361.2,367.3,367.5z"/>
	<path d="M405.6,445.4v-13.8l-11.8-15.4v-59.9c0-9.8,2.9-13.6,6.2-14l5.6-0.9v-14.3l-0.8-1.1l5.7,1.1c3.4,0.4,6,2.9,6,11.3v61.9
		c0,6.4-1.3,11.4-4.7,12.2l-7.1,1.1v16.7l11.6,15.2h52.8V430l-12.5-15.4v-21.2h8.5c1.3,3.6,1.8,20,7.3,31.4
		c6.5,14,17.6,20.7,27.8,20.7c14.7,0,22.9-8.7,22.9-32.3v-10.7l-14-17.6h-12.5c7.6-4.4,13.4-13.1,13.4-24.9
		c0-21-16.1-50.6-49.2-50.6h-56.1v16.6l-12.5-16.6h-50.3V326l5.8,1.1c3.4,0.4,6,2.9,6,11.3v61.9c0,6.4-1.3,11.4-4.7,12.2l-7.1,1.1
		v16.7l11.6,15.2H405.6z M407.9,312.6h51.2c23.2,0,34.1,11.6,34.1,30.3c0,14.5-6.4,22.7-13.2,26.5v0.4c6.2,4.5,8.5,11.4,9.4,21.4
		c0.9,10.3,1.6,15.2,4.5,15.2c2.7,0,3.4-6,3.4-10v-8.3h10.5v8.3c0,25.2-6.9,31.8-17.6,31.8c-13.1,0-18.3-6.9-20.9-29
		c-1.1-10.5-4-22-12.3-22h-17.1v24c0,8.3,2,14.2,8.5,14.9l4.2,0.5v10.3h-44.8v-10.3l5.8-0.9c4.4-0.9,5.8-6.2,5.8-14.5v-62.8
		c0-8.5-2.2-13.8-5.8-14.5l-5.8-0.9V312.6z M345.2,416.5l5.8-0.9c4.4-0.9,5.8-6.2,5.8-14.5v-62.8c0-8.5-2.2-13.8-5.8-14.5l-5.8-0.9
		v-10.3h43.7v10.3l-5.8,0.9c-3.6,0.7-5.8,6-5.8,14.5v62.8c0,8.3,1.5,13.6,6,14.5l5.8,0.9v10.3h-43.9V416.5z"/>
	<path d="M471.4,344.5c0-11.4-6.4-16.1-12.3-16.1h-12.9c-3.8,0-6.2,2.2-6.2,10.9v20.7h19.1C465.1,359.9,471.4,354.3,471.4,344.5z
		 M456.6,352.5c0-3.6,1.5-5.6,3.4-5.6h4.2c1.5,0,2.9,1.5,2.9,3.3c0,3.4-4.4,6.9-7.4,6.9h-3.1V352.5z"/>
	<path d="M422.8,338.3v29.4c1.6-1.5,3.4-1.5,6.4,0c-0.9,2.4-2.9,6.2-5.3,8.9c2.4,6,4.4,14.3,5.6,29.8c1.5-15.4,3.4-23.8,6.2-29.8
		c-2.5-2.7-4.9-6.5-5.8-8.9c3.4-1.5,6.7-1.5,10.2,0c3.4-1.5,7.1-1.5,10.5,0c3.3-1.5,6.7-1.5,10,0c3.4-1.5,6-1.5,8.5,0
		c0.5,3.1-0.2,6-1.8,8.9c6,5.3,12.2,14,14.5,29.8c0.4-15.4-0.5-23.8-2.7-29.8c-2.9-3.8-5.1-6-9.3-8.9c3.3-1.5,5.8-1.5,7.3,0
		c7.6-4,13.1-11.8,13.1-24.9c0-20.5-12.3-27.2-31.2-27.2H411v4l4.7,0.7C419,321.1,422.8,324.5,422.8,338.3z M479.6,330.3
		c5.1,10.7,6.5,19.1,6.5,24.5c-5.3,5.3-10.3,8.7-16.3,12.7h-0.7c3.4-3.3,6.5-8.7,7.1-13.4C479.4,350.7,483.6,343.1,479.6,330.3z
		 M436.8,339.2c0-9.6,2.2-14,9.6-14h12.2c9.8,0,16.1,7.1,16.1,19.2c0,12.9-9.1,18.7-15.8,18.7h-22.1V339.2z M429.5,330.3
		c1.3,13.6,3.4,20.1,6.2,24.5c-2.7,2.7-4.9,6.4-5.8,12.7h-0.7c-0.9-6.4-2.9-10-5.3-12.7C426.6,350.5,428.6,344,429.5,330.3z"/>
	<path d="M541.1,322.4c7.8,0,10.7,6.5,10.7,17.4v27.9c2-1.5,4.5-1.5,6.9,0c-1.1,2.4-3.1,6.2-5.6,8.9c2.5,6,4.5,14.3,5.8,29.8
		c1.5-15.4,3.4-23.8,6-29.8c-2.5-2.7-4.5-6.5-5.6-8.9c2.5-1.5,5.1-1.5,6.7,0v-27.9c0-10.9,2.9-17.4,10.7-17.4
		c11.3,0,13.6,14.9,13.6,26.3v6.4h4.5v-39.4H523V355h4.5v-6.4C527.5,337.2,529.9,322.4,541.1,322.4z M558.9,330.3
		c1.5,13.6,3.4,20.1,5.8,24.5c-2.4,2.7-4.4,6.4-5.4,12.7h-0.5c-1.1-6.4-3.1-10-5.6-12.7C555.6,350.5,557.6,344,558.9,330.3z"/>
	<path d="M516.6,361.4l16.9,15.2h12v23.6c0,6.4-1.1,11.4-4.7,12.2l-6.9,1.1v16.7l11.6,15.2h51.9v-13.8l-11.6-15.4v-54.8l11.4,15.2
		h17.4v-49.5l-13.4-17.8h-84.6V361.4z M519.9,312.6h78v45.5h-10.7V348c0-10.7-2.7-22.5-10.5-22.5c-6.9,0-7.6,10.7-7.6,17.6v58.1
		c0,8.3,1.5,13.6,6.2,14.5l5.6,0.9v10.3H537v-10.3l5.8-0.9c4.5-0.9,6-6.2,6-14.5v-58.1c0-6.9-0.7-17.6-7.6-17.6
		c-7.8,0-10.5,11.8-10.5,22.5v10.2h-10.7V312.6z"/>
	<path d="M667.8,389.9v-15.8l-7.8-11.4h-39.4v18.5l6.4,8.7H667.8z M623.5,365h34.3v13.8h-34.3V365z"/>
	<rect x="626.2" y="367.7" width="28.5" height="8.3"/>
	<path d="M406,612.3l-21,20.3l41,50.3l41-50.3l-21-20.3H406z M443.2,615.5l-4,13.8l-10.3-13.8H443.2z M436.6,631.1h-20.7l10.4-13.9
		L436.6,631.1z M423.5,615.5l-10.6,14.2l-4.1-14.2H423.5z M405.8,616.9l4.1,14.2h-18.9L405.8,616.9z M390.5,634.3h20.4l11.4,39
		L390.5,634.3z M414.2,634.3h23.5L426,674.7L414.2,634.3z M429.7,673.3l11.4-39h20.4L429.7,673.3z M460.9,631.1H442l4.1-14.2
		L460.9,631.1z"/>
	<path d="M229.9,477.5c3,0,5.4,2.1,5.4,4.8c0,1-0.3,2-0.8,3.8c-1.5,5.3-4.6,16.3-4.6,40.3c0,16.9,1.2,29.2,3.6,37.6
		c2.5,8.7,6.4,13.1,11.7,13.1c6.2,0,13-8,16.9-14.9c6.7-11.5,10.3-27.1,10.3-43.8c0-15.1-4-27.3-11.6-35.4c-7-7.4-17-11.4-28.8-11.4
		c-12.2,0-25.3,5.5-35.2,14.7c-11.2,10.4-17.4,24.9-17.4,40.6c0,4.9,0.7,9.4,1.8,12.8c2,5.6,5,6.7,7.2,6.7c2.2,0,3.9-1.6,5.2-4.8
		c1.2-3.1,1.9-7.5,1.9-12.1c0-10.4-2.3-15.6-4-18.6c-0.7-1.2-1-2.2-1-3.1c0-2.4,1.7-4.2,4.1-4.2c0.9,0,2.1,0.4,3.5,1.2l0,0
		c3.7,2.2,9.1,7.3,11.8,14.3l1.7,4.3l0.3-4.6c0.9-12,3-21.9,6.3-29.3C222.2,480.6,227,477.5,229.9,477.5z M260.3,561.1
		c-3.8,6.6-10.2,13.8-15.1,13.8c-8.1,0-12.5-14.1-13.1-41.9l28.3,27.9C260.4,560.9,260.3,561,260.3,561.1z M210.2,514.8
		c-3.1-5.7-7.7-9.8-11-11.8l-0.1,0c-1.2-0.7-2.9-1.5-4.5-1.5c-3.5,0-6.2,2.7-6.2,6.3c0,1.3,0.5,2.7,1.3,4.1
		c1.6,2.8,3.8,7.6,3.8,17.5c0,4.4-0.7,8.5-1.8,11.3c-1.4,3.5-2.8,3.5-3.2,3.5c-4.8,0-6.9-8.7-6.9-17.4c0-12.2,3.9-23.7,11-32.9
		l18,17.7C210.4,512.7,210.3,513.7,210.2,514.8z M209.5,479.7c7.2-3.9,15-6,22.4-6c11.2,0,20.7,3.7,27.3,10.7
		c7.2,7.7,11.1,19.4,11.1,33.9c0,6.8-0.6,13.3-1.8,19.5l-35.3-34.7c1-8.4,2.4-13.4,3.3-16.5c0.5-1.9,0.9-3.1,0.9-4.4
		c0-3.8-3.4-6.9-7.5-6.9c-6.2,0-10.9,7.7-12.9,11.8L209.5,479.7z"/>
	<path d="M313.7,476.9c-3.8,0-7.3,1.8-9.8,5c-2.1,2.7-3.2,6.2-3.2,9.6c0,7.6,5.7,11.7,11,11.7c7.2,0,12.9-6.5,12.9-14.8
		C324.6,481.8,320,476.9,313.7,476.9z M311.7,501.1c-5.8,0-8.9-4.9-8.9-9.6c0-2.9,1-6,2.8-8.3c2.1-2.7,4.9-4.2,8.1-4.2
		c5,0,8.7,4,8.7,9.4C322.5,495.6,317.7,501.1,311.7,501.1z"/>
	<path d="M359.4,524c0-2.1-1-3.1-3.4-3.1c-4.6,0-13.1,9.1-13.1,31.2c0,9.1,2.3,12.3,3,13.1l0.8,0.9l0.8-0.9c1-1.3,3.2-5.3,5.9-17.9
		l0,0c0.2-0.9,0.4-1.8,0.6-2.8c0.7-3.4,1.4-7.3,3.4-10.4c0.6-0.9,1.3-1.7,2.1-2.4l0.7-0.6l-0.5-0.8c-0.4-0.6-0.6-1.4-0.6-2.2
		c0-0.6,0.1-1.1,0.1-1.6C359.4,525.7,359.4,525,359.4,524z M355.8,532.8c-2.3,3.5-3.1,7.6-3.8,11.2c-0.2,1-0.4,1.9-0.6,2.7l0,0
		c-2,9.4-3.7,13.7-4.7,15.7c-0.7-1.5-1.7-4.6-1.7-10.4c0-11.5,2.4-18.5,4.4-22.4c2.3-4.5,5-6.6,6.6-6.6c1.2,0,1.2,0.1,1.2,0.9
		c0,0.8-0.1,1.4-0.1,2c-0.1,0.6-0.1,1.2-0.1,1.9c0,0.9,0.2,1.8,0.6,2.6C356.9,531.2,356.3,532,355.8,532.8z"/>
	<path d="M489.5,565.5c6.2,0,9.8-9.4,9.8-25.8c0-12.4-3.1-19.2-8.7-19.2c-2.1,0-4.1,1-5.6,2.7c-1.4,1.6-2.2,3.7-2.2,5.6
		c0,3,0.7,3.9,1.6,4.9c0.7,0.7,1.7,1.7,1.7,3.5c0,2.9-2.4,4.2-4.6,4.4l-0.9,0.1l0,0.9c0,0.8,0,1.7,0,2.8c0,3.2,0.2,7.8,1.3,11.9
		C482.8,561.1,484.9,565.5,489.5,565.5z M482.6,543.7c4.1-0.8,5.5-3.9,5.5-6.4c0-2.7-1.5-4.2-2.3-5c-0.6-0.6-1-1-1-3.4
		c0-2.8,2.6-6.2,5.7-6.2c2.4,0,4.2,1.9,5.3,5.8c1.1,3.6,1.3,8.2,1.3,11.3c0,14.6-2.9,23.6-7.6,23.6c-6.4,0-6.9-13.6-6.9-17.8
		C482.6,544.8,482.6,544.2,482.6,543.7z"/>
	<path d="M649,551.3l-0.1,0.2l0,0.2c-0.1,2.9-0.6,4.6-1,6.1c-0.3,1.2-0.6,2.2-0.6,3.6c0,2,2.2,5.1,5.4,5.1c2.3,0,5.3-1,5.3-9.8
		c0-4.2-2.3-11.1-3.7-14.8l-1.1-3l-0.9,3C651.3,544.9,650.2,548.1,649,551.3z M653.3,545.6c1.6,4.8,2.5,8.8,2.5,11.1
		c0,7.6-2.2,7.6-3.1,7.6c-2,0-3.3-2.1-3.3-3c0-1.1,0.2-1.9,0.5-3c0.4-1.5,1-3.4,1.1-6.5C651.8,549.8,652.6,547.7,653.3,545.6z"/>
	<path d="M608.3,537.7l-0.1-1l-0.7-0.2c-2.7-0.7-4.7-3.7-4.7-5.8c0-1.1,0.4-2.1,0.9-3.1c0.5-1.2,1-2.4,1-4.1c0-1.2-0.8-2.5-2.5-2.5
		c-3,0-8.5,7.9-8.5,23c0,6.6,0.8,11.7,2.3,15.2c1.3,3,2.9,4.2,3.9,4.3l0.2,0l0.2,0c1.6-0.4,5-4,9.2-12.9l0.1-0.3l-0.1-0.3
		C608.8,546.1,608.6,542,608.3,537.7z M599.9,561.4c-0.7-0.4-2-2-2.9-5.9l9.8-9.6c0.1,1.4,0.3,2.8,0.5,4.2
		C603.6,558,600.9,560.8,599.9,561.4z"/>
	<path d="M775,108c-2.1-4-5.3-8.6-9.5-13.5c-9-10.5-20.2-19.2-32.7-25c-6.1-2.9-11.5-4.8-16.2-5.8c-2.1-0.4-4.2-0.7-6.2-0.7
		c-17.3,0-30.4,15.9-41.9,33.2c-3.9,5.9-20.3,30.2-43.2,64.2H226.6c-23-34.1-39.3-58.4-43.2-64.2c-11.5-17.2-24.6-33.2-41.9-33.2
		c-2,0-4.1,0.2-6.2,0.7c-4.6,1-10.1,3-16.2,5.8c-12.4,5.8-23.7,14.5-32.7,25c-4.2,4.9-7.4,9.5-9.5,13.5c-9.6,18.3,3.2,37.3,18.5,55
		c4.5,5.3,22.9,26.7,48.7,56.9v226.5l34.2,33.7c-10.1,9.5-20.1,24.4-20.1,46.6c0,21,15.3,32.4,29.8,32.4c9.2,0,17.1-5.1,21.7-13.8
		c1,13.9,3.7,24.8,8.1,32.4c5.3,9.1,13.2,13.9,22.8,13.9c10.8,0,23.4-6.5,33.4-17.1l36.7,36.1c-24.4,30.6-44,54.1-52.2,63.8
		c-3.4-2.2-7.3-3.3-11.4-3.3c-6.7,0-13,3.1-17,8.4c-7.1,9.4-5.3,22.8,4.1,30l23.7,18.1l23.7,18.1c3.8,2.9,8.2,4.4,12.9,4.4
		c6.7,0,13-3.1,17-8.4c3.5-4.5,4.9-10.2,4.2-15.8c-0.7-5.1-3.1-9.6-6.8-13c7.9-11.5,23.3-33.7,43.2-61.4l73.9,72.7l73.9-72.7
		c20,27.7,35.3,49.9,43.2,61.4c-3.7,3.4-6.2,7.9-6.8,13c-0.8,5.7,0.7,11.3,4.2,15.8c4.1,5.4,10.3,8.4,17,8.4c4.7,0,9.2-1.5,12.9-4.4
		l23.7-18.1l23.7-18.1c9.4-7.1,11.2-20.6,4.1-30c-4.1-5.4-10.3-8.4-17-8.4c-4.1,0-8,1.1-11.4,3.3c-8.2-9.8-27.8-33.2-52.2-63.8
		l39.6-39c4.3,4.9,10,7.7,16,7.7c5.5,0,10.9-3.4,16.1-10.1c3.4,6,8.1,9.1,14.1,9.1c4,0,7.8-1.8,11.4-5.4c4,4.1,9.5,6.4,15.7,6.4
		c5.5,0,11.6-2,16.2-5.3c5.8-4.2,8.9-10.2,8.9-16.9c0-9.1-6.1-17-11.4-24c-2.9-3.8-6.3-8.2-6.7-10.8c0.2-0.6,0.5-1.4,0.8-2.2
		c1.2-3.2,2.8-7.1,2.8-11.2c0-6.8-4.1-10.4-8.7-11.3l52-51.2V219.8c25.8-30.2,44.2-51.6,48.7-56.9C771.8,145.2,784.7,126.3,775,108z
		 M101.9,157.4c-17.4-20.2-23.6-33.7-17.4-45.5c2.1-3.9,5.2-8.1,8.5-12c8.2-9.6,18.4-17.5,29.8-22.8c4.7-2.2,9.8-4.2,14.3-5.2
		c1.5-0.3,2.9-0.5,4.4-0.5c11.3,0,21.7,9.8,34.8,29.4c4,6,19,28.2,40,59.5h-72.2v46.4C121.9,180.8,106.3,162.5,101.9,157.4z
		 M286.6,555.7c1.5-3.2,2.8-6.6,3.9-10c0,0.6,0,1.2,0,1.7c0,5,0.4,9.4,1.2,13.3L286.6,555.7z M291.7,530.7c-0.1,0.7-0.2,1.5-0.3,2.2
		c-2.3,14.4-8.1,27.4-17,37.8c-9.9,11.5-22.8,18.6-33.7,18.6c-8.8,0-16.1-4.4-21-12.8c-4.7-8.1-7.4-20.1-8.1-35.7l-0.2-5.2l-1.8,4.9
		c-3.9,10.3-11.9,16.4-21.5,16.4c-13.4,0-27.6-10.6-27.6-30.2c0-25.4,13.5-41,24.9-49.6c13.5-10.3,31.8-16.4,49-16.4
		c15.6,0,29.7,4.8,39.9,13.7c11.9,10.3,18.3,25.9,18.3,45C292.5,523.1,292.2,526.9,291.7,530.7z M298.8,572.1
		c-4.1-5.3-6.2-13.7-6.2-24.7c0-5.2,0.3-9.9,0.8-14.1c0.1-0.8,0.2-1.6,0.4-2.4c0.7-4.5,1.8-8.2,3.2-11.2c2-4.2,5.8-9.3,12.8-9.3
		c0.8,0,5.1,0.2,5.1,4.6c0,0.7-0.2,1.6-0.7,3.1c-1.2,4.2-4.1,14.1-4.1,32.1c0,11.4,2.1,14.4,2.9,15.2l0.3,0.3l0.4,0
		c2.4-0.2,5.6-3.3,8.6-8.4c0.9-1.5,1.7-3.2,2.5-4.9l0.1-0.2V552c0-15.9,5.4-25.7,10-31.1c5.7-6.8,13.5-10.7,21.3-10.7
		c9,0,15.8,6.1,15.8,14.2c0,1-0.3,2-0.8,2.9l-0.5,0.9l0.9,0.5c1.2,0.7,1.9,2,1.9,3.6c0,0.9-0.3,1.6-0.7,2.7c-1,2.4-2.9,6.9-2.9,17.3
		c0,4.9,1,8,1.9,9l0.4,0.5l0.6-0.1c2.2-0.3,4.4-2.4,6.8-6.5c0.7-1.2,1.3-2.4,1.9-3.6l0.1-0.2l0-0.3c-0.1-1.9-0.2-3.8-0.2-5.6
		c0-10.9,0.8-18.3,2.4-23.1c1.9-5.4,5-8,9.6-8c2.5,0,4.6,1.1,5.3,2.9l0.7,2l1.1-1.8c3.7-5.7,8.1-8.5,13.2-8.5
		c7.7,0,12.8,5.5,14.2,15.6l0.3,2.2l1.5-1.7c3-3.2,8.8-8.6,15.1-8.6c7.1,0,12.8,5.6,12.8,12.5c0,5.2-1.5,10.3-3.1,15.7
		c-1.7,5.7-3.4,11.5-3.4,17.9c0,0.9,0.3,1.5,1,1.7l0.2,0.1l0.2,0c2.5-0.2,5.3-2.8,8.4-7.9c0.9-1.5,1.8-3.2,2.7-5.2l0.1-0.2l0-0.3
		c-0.1-0.9-0.1-1.8-0.1-2.7c0-5.5,1-10.4,3.1-14.6l0.2-0.4l-0.2-0.4c-0.6-1.4-0.8-2.8-0.8-4.5c0-4.7,2.6-9.3,7.2-12.8
		c4.6-3.5,10.6-5.5,17-5.5c7.7,0,14.1,2.8,18.4,8.1c4.5,5.5,6.9,13.7,7.1,24.4c-0.1,2-0.2,4-0.2,6.2c-0.7,8.2-3.5,15.2-8,20.3
		c-4.7,5.3-11.4,8.4-18.2,8.4c-5.9,0-11.2-1.6-15.3-4.7c-2.5-1.8-4.5-4.2-6.2-7l-0.9-1.5l-0.9,1.5c-5.3,8.1-11,12.3-16.9,12.3
		c-3.7,0-7.4-1.4-10.1-3.8c-3-2.7-4.7-6.4-4.7-10.5c0-8.9,2.4-15.2,4.5-20.9c1.6-4.2,2.9-7.9,3.1-11.9l0-1.3l-1.3,0.3
		c-2.3,0.5-6.9,4.5-9.9,13.6c-3,9.5-3.2,18.7-3.2,27.2c0,3-2.9,4.8-5.7,4.8c-9.5,0-9.9-7.1-9.9-23.3v-16.9c0-5.7-0.2-9.6-0.6-11.6
		l-0.4-1.9l-1.4,1.4c-1.3,1.3-2.7,4-4,7.7c-1.9,5.4-3.7,13-5.6,23.3c-1.6,8.4-1.6,12.8-1.6,14.9c0,1.8-1.1,3.6-3.1,4.8
		c-1.6,1-3.5,1.6-5.3,1.6c-1.9,0-3.5-1.6-4.9-5c-0.3-0.7-0.5-1.4-0.8-2.2l-0.6-2l-1.2,1.7c-3.8,5.4-7.7,8-11.8,8
		c-4.8,0-8.7-2.1-11.5-6.4l-1-1.4l-0.8,1.5c-0.1,0.2-0.2,0.3-0.3,0.5c-3.1,5.3-7.4,8.1-12.3,8.1c-6.8,0-12.7-3.8-16.3-10.5l-0.9-1.6
		l-1,1.5c-4.8,7.6-9.8,11.4-14.9,11.4C306.6,578.7,302.1,576.4,298.8,572.1z M300.1,710.4c-1.5,2.2-1,5.3,1.1,6.9l1.1,0.9
		c5.7,4.3,6.8,12.4,2.5,18.1c-2.5,3.3-6.4,5.1-10.3,5.1c-2.7,0-5.5-0.9-7.8-2.6L263,720.7l-23.7-18.1c-5.7-4.3-6.8-12.4-2.5-18.1
		c2.5-3.3,6.4-5.1,10.3-5.1c2.7,0,5.5,0.9,7.8,2.6l1.1,0.9c0.9,0.7,2,1,3.1,1c1.5,0,2.9-0.6,3.9-1.8c7.5-8.9,28-33.3,53.9-65.7
		l29.2,28.7C323.2,676.7,306.4,701.2,300.1,710.4z M589,682.2c1,1.2,2.4,1.8,3.9,1.8c1.1,0,2.2-0.3,3.1-1l1.1-0.9
		c2.3-1.8,5.1-2.6,7.8-2.6c3.9,0,7.7,1.8,10.3,5.1c4.3,5.7,3.2,13.8-2.5,18.1L589,720.7l-23.7,18.1c-2.3,1.8-5.1,2.6-7.8,2.6
		c-3.9,0-7.7-1.8-10.3-5.1c-4.3-5.7-3.2-13.8,2.5-18.1l1.1-0.9c2.2-1.6,2.6-4.7,1.1-6.9c-6.3-9.2-23.1-33.7-45.9-65.3l29.2-28.7
		C561,648.9,581.5,673.3,589,682.2z M426,692.9L312.1,580.8c5.3-0.2,10.5-3.9,15.3-10.9c4,6.4,10.2,10.1,17.3,10.1
		c5.4,0,10.1-2.9,13.6-8.3c3.9,4.9,8.8,6,12.3,6c4.4,0,8.4-2.4,12.3-7.2c0.1,0.2,0.1,0.3,0.2,0.5c1.1,2.7,3,6.3,6.8,6.3
		c2.2,0,4.5-0.7,6.5-1.9c2.6-1.6,4.1-4,4.1-6.6c0-2,0-6.3,1.5-14.5c1.8-10.2,3.6-17.7,5.5-22.9c0.8-2.2,1.5-3.7,2.1-4.8
		c0.1,1.8,0.2,4.5,0.2,8.5v16.9c0,7.7,0,13.8,1.4,18.2c1.6,4.9,5,7.2,10.6,7.2c3.8,0,7.8-2.6,7.8-6.9c0-8.4,0.2-17.3,3.1-26.6
		c2.1-6.4,5-10,6.9-11.4c-0.4,3-1.5,6-2.8,9.4c-2.2,5.8-4.6,12.3-4.6,21.6c0,4.7,1.9,9,5.4,12.1c3.1,2.8,7.3,4.4,11.6,4.4
		c6.3,0,12.3-4,17.7-11.9c1.6,2.5,3.6,4.5,5.8,6.2c4.5,3.4,10.3,5.2,16.6,5.2c7.4,0,14.7-3.3,19.8-9.1c3.1-3.4,5.4-7.7,6.8-12.5
		c1.7,14.1,8,19.4,14.1,19.4c5.7,0,7.8-3.7,7.8-6.9c0-1-0.1-1.9-0.3-2.8c-0.2-1-0.3-2.2-0.3-4c0-1.9,0.2-3.9,0.5-6.3
		c1.3-8,4.4-16.6,8.4-23.7c1.6-2.9,3.1-4.9,4.2-6.3c-0.6,2.2-1.5,4.8-2.4,7.7c-2.6,7.8-5.8,17.5-5.8,27.3c0,5.1,1.7,9.1,4.4,12
		L426,692.9z M662.4,508.9c0,3.7-1.5,7.4-2.6,10.4c-0.3,0.9-0.7,1.7-0.9,2.5l-0.1,0.2l0,0.2c0.4,3.2,3.7,7.5,7.2,12.1
		c5.1,6.7,11,14.3,11,22.7c0,6-2.9,11.4-8.1,15.2c-4.2,3.1-9.8,4.9-14.9,4.9c-5.9,0-11.2-2.3-14.8-6.5l-0.8-0.9l-0.8,0.9
		c-3.4,3.7-7,5.5-10.6,5.5c-5.5,0-9.9-3.2-12.9-9.4l-0.8-1.6l-1,1.4c-5.1,7-10.2,10.6-15.4,10.6c-7,0-13.3-4.1-17.4-11.2l-0.9-1.5
		l-1,1.4c-5.2,7.7-11.3,11.8-17.7,11.8c-7.7,0-15.6-5.3-15.6-15.6c0-9.5,3.1-19,5.7-26.7c1.5-4.5,2.8-8.5,3.2-11.5l0.4-2.7l-2.1,1.7
		c-1.3,1-4,3.7-7.2,9.4c-4.1,7.3-7.2,16.2-8.6,24.4c-0.4,2.5-0.6,4.6-0.6,6.6c0,2,0.2,3.2,0.3,4.3c0.1,0.8,0.2,1.6,0.2,2.5
		c0,3-2.1,4.8-5.7,4.8c-6,0-12.3-6.5-12.3-24.9c0-0.4,0-0.9,0-1.3c0.1-1.6,0.2-3.2,0.2-4.9c0-0.5,0-1,0-1.5
		c0.4-8.2,1.6-14.7,3.5-19.4c1.3-3.2,4.3-8.6,9.8-8.6c3.5,0,4.8,1.9,4.8,3.8c0,0.9-0.2,1.7-0.4,2.9c-0.2,0.8-0.4,1.7-0.6,3l-0.9,5.2
		l2.8-4.5c3.4-5.3,10.3-14.3,18.7-14.3c6.9,0,12.5,5.1,12.5,11.5c0,5-1.2,11.1-2.4,17.5c-1.5,7.5-3,15.2-3,22.5c0,1,0.2,1.6,0.4,1.9
		l0.2,0.4l0.5,0.1c0.1,0,0.2,0,0.4,0c3.4,0,7-5,8.8-7.9c0.7-1.2,1.4-2.5,2.1-4.1l0.1-0.3l0-0.3c-0.2-1.6-0.2-3.2-0.2-4.8
		c0-24.9,15.6-36.5,26.2-36.5c1.9,0,3.7,0.3,5.2,0.8l1.4,0.5l0-1.5c0.4-12.9,2.2-22.8,5.3-29.5c4.1-8.6,9.5-9.9,12.3-9.9
		c7.8,0,11.3,7,11.3,14c0,14.3-5.1,37.6-12.7,57.9l-0.1,0.2l0,0.2c1.3,14.6,3.7,18,4.7,18.7l0.3,0.3l0.4,0c1.4-0.1,2.9-1,4.4-2.7
		l0.3-0.3l0-0.5c-0.1-0.6-0.1-1.3-0.1-1.9c0-4.3,2.4-8.1,6.3-10.1l0.4-0.2l0.1-0.4c1.6-5.2,4.8-17.3,5.3-23l0-0.2l-0.1-0.2
		c-0.2-0.6-0.4-1.1-0.6-1.6c-1.5-4-2.3-6.2-2.3-10.3c0-6.4,4.5-11.3,10.2-11.3C657.6,499.4,662.4,501.9,662.4,508.9z M632,558.5
		c-0.8,0.8-1.6,1.4-2.2,1.6c-0.7-1-2.5-4.6-3.6-16.7c2.9-7.8,5.4-16,7.5-24l7.5-7.4c0.2,3.8,1.1,6.2,2.4,9.8
		c0.2,0.4,0.3,0.9,0.5,1.4c-0.6,5.5-3.5,16.7-5.1,21.9c-4.4,2.4-7,6.9-7,11.8C632,557.4,632,557.9,632,558.5z M685.8,437.1
		l-46.9,46.2c-0.7-9.9-7.1-14.3-13.4-14.3c-3.4,0-9.7,1.4-14.2,11.1c-3.2,6.7-5,16.5-5.5,29c-1.4-0.4-2.9-0.5-4.6-0.5
		c-11.4,0-28.3,12.3-28.3,38.6c0,0.4,0,0.7,0,1.1l-7.7,7.6c0.5-5.2,1.6-10.6,2.6-15.9c1.3-6.5,2.5-12.7,2.5-17.9
		c0-7.5-6.6-13.6-14.6-13.6c-6,0-12.1,3.9-17.6,11.1c0.1-0.4,0.1-0.9,0.1-1.3c0-2.9-2.1-5.9-6.9-5.9c-6.7,0-10.3,6.2-11.8,9.9
		c-1.1,2.6-1.9,5.9-2.6,9.6c-1.2-6.2-3.4-11.2-6.6-15.1c-4.8-5.8-11.7-8.9-20.1-8.9c-6.8,0-13.3,2.1-18.3,5.9c-5.1,3.9-8,9.2-8,14.5
		c0,1.7,0.3,3.3,0.8,4.8c-2.1,4.4-3.1,9.5-3.1,15.1c0,0.9,0,1.7,0.1,2.6c-0.8,1.7-1.6,3.3-2.5,4.7c-2.8,4.6-4.8,6.1-5.9,6.6
		c0.1-5.8,1.7-11.3,3.3-16.6c1.6-5.6,3.2-10.8,3.2-16.4c0-8.1-6.7-14.6-14.9-14.6c-3.5,0-8.8,1.4-15.2,7.8
		c-2-9.8-7.7-15.3-15.9-15.3c-5.4,0-10.1,2.7-14,8.1c-1.4-1.7-3.6-2.7-6.3-2.7c-5.5,0-9.5,3.3-11.6,9.5c-1.7,5-2.6,12.6-2.6,23.8
		c0,1.8,0,3.7,0.1,5.5c-0.5,1.1-1.1,2.1-1.7,3.2c-2.1,3.6-3.7,4.9-4.6,5.3c-0.5-1-1.1-3.3-1.1-7.1c0-9.9,1.8-14.2,2.7-16.5
		c0.5-1.2,0.9-2.2,0.9-3.5c0-2-0.8-3.7-2.1-4.9c0.4-1,0.6-2,0.6-3.1c0-9.3-7.7-16.4-18-16.4c-8.4,0-16.7,4.2-22.9,11.5
		c-4.8,5.6-10.4,15.8-10.5,32.2c-0.7,1.6-1.5,3.1-2.3,4.5c-2.8,4.9-5.2,6.8-6.4,7.3c-0.6-1-1.9-4.2-1.9-13.2c0-17.7,2.8-27.4,4-31.5
		c0.5-1.7,0.8-2.7,0.8-3.7c0-4.7-3.6-6.8-7.2-6.8c-4.4,0-10.6,1.8-14.7,10.5c-0.2,0.4-0.4,0.8-0.5,1.2c0-0.3,0-0.6,0-0.8
		c0-19.7-6.6-35.8-19-46.6c-10.6-9.1-25.2-14.2-41.3-14.2c-12.6,0-25.8,3.2-37.4,8.9l-30.7-30.3V182.4h519.6V437.1z M707.9,206.8
		v-46.4h-72.2c21.1-31.3,36-53.5,40-59.5c13.1-19.6,23.5-29.4,34.8-29.4c1.4,0,2.9,0.2,4.4,0.5c4.5,1,9.6,3,14.3,5.2
		c11.4,5.4,21.6,13.2,29.8,22.8c3.3,3.8,6.4,8,8.5,12c6.2,11.8,0,25.3-17.4,45.5C745.7,162.5,730.1,180.8,707.9,206.8z"/>
</g>
</svg>
